<svg xmlns="http://www.w3.org/2000/svg" xml:space="preserve" style="fill-rule:evenodd;clip-rule:evenodd;stroke-linecap:round;stroke-linejoin:round;stroke-miterlimit:1.5" viewBox="0 0 256 201.02"><path d="M28.35 30.43c0-5.2 1.65-9.45 4.94-12.75 3.3-3.3 7.55-4.94 12.75-4.94h22.9v20.81H54.89c-3.12 0-4.68 1.74-4.68 5.2v46.67c0 3.93-1.25 7.17-3.73 9.71-2.49 2.54-5.76 3.82-9.8 3.82h-1.05v3.12h1.05c4.04 0 7.31 1.27 9.8 3.82 2.48 2.54 3.73 5.78 3.73 9.7v46.67c0 3.47 1.56 5.2 4.68 5.2h14.05v20.82h-22.9c-5.2 0-9.45-1.65-12.75-4.95-3.3-3.3-4.94-7.54-4.94-12.75v-52.55c0-3.36-1.56-5.03-4.68-5.03H12.74V88.02h10.93c3.12 0 4.68-1.68 4.68-5.03V30.43Z" style="fill:none;fill-rule:nonzero;stroke:url(#a);stroke-width:25.48px"/><path d="M123.23 30.43c0-5.2 1.65-9.45 4.94-12.75 3.3-3.3 7.55-4.94 12.75-4.94h22.9v20.81h-14.05c-3.12 0-4.69 1.74-4.69 5.2v46.67c0 3.93-1.24 7.17-3.72 9.71-2.49 2.54-5.76 3.82-9.8 3.82h-1.05v3.12h1.05c4.04 0 7.31 1.27 9.8 3.82 2.48 2.54 3.72 5.78 3.72 9.7v46.67c0 3.47 1.57 5.2 4.69 5.2h14.05v20.82h-22.9c-5.2 0-9.45-1.65-12.75-4.95-3.3-3.3-4.94-7.54-4.94-12.75v-52.55c0-3.36-1.56-5.03-4.68-5.03h-10.93V88.02h10.93c3.12 0 4.68-1.68 4.68-5.03V30.43Z" style="fill:none;fill-rule:nonzero;stroke:url(#b);stroke-width:25.48px"/><path d="M243.26 147.17a16.34 16.34 0 0 1-4.86 11.7 17.5 17.5 0 0 1-5.29 3.47c-2.02.87-4.13 1.3-6.33 1.3-2.31 0-4.45-.43-6.41-1.3a17.81 17.81 0 0 1-5.2-3.47 16.34 16.34 0 0 1-4.86-11.7 16.34 16.34 0 0 1 4.85-11.71c1.5-1.45 3.24-2.6 5.2-3.47 1.97-.87 4.11-1.3 6.42-1.3 2.2 0 4.31.43 6.33 1.3a17.5 17.5 0 0 1 5.3 3.47 16.34 16.34 0 0 1 4.86 11.7Z" style="fill:none;fill-rule:nonzero;stroke:url(#c);stroke-width:25.48px"/><path d="M28.35 30.43c0-5.2 1.65-9.45 4.94-12.75 3.3-3.3 7.55-4.94 12.75-4.94h22.9v20.81H54.89c-3.12 0-4.68 1.74-4.68 5.2v46.67c0 3.93-1.25 7.17-3.73 9.71-2.49 2.54-5.76 3.82-9.8 3.82h-1.05v3.12h1.05c4.04 0 7.31 1.27 9.8 3.82 2.48 2.54 3.73 5.78 3.73 9.7v46.67c0 3.47 1.56 5.2 4.68 5.2h14.05v20.82h-22.9c-5.2 0-9.45-1.65-12.75-4.95-3.3-3.3-4.94-7.54-4.94-12.75v-52.55c0-3.36-1.56-5.03-4.68-5.03H12.74V88.02h10.93c3.12 0 4.68-1.68 4.68-5.03V30.43Z" style="fill:url(#d);fill-rule:nonzero"/><path d="M123.23 30.43c0-5.2 1.65-9.45 4.94-12.75 3.3-3.3 7.55-4.94 12.75-4.94h22.9v20.81h-14.05c-3.12 0-4.69 1.74-4.69 5.2v46.67c0 3.93-1.24 7.17-3.72 9.71-2.49 2.54-5.76 3.82-9.8 3.82h-1.05v3.12h1.05c4.04 0 7.31 1.27 9.8 3.82 2.48 2.54 3.72 5.78 3.72 9.7v46.67c0 3.47 1.57 5.2 4.69 5.2h14.05v20.82h-22.9c-5.2 0-9.45-1.65-12.75-4.95-3.3-3.3-4.94-7.54-4.94-12.75v-52.55c0-3.36-1.56-5.03-4.68-5.03h-10.93V88.02h10.93c3.12 0 4.68-1.68 4.68-5.03V30.43Z" style="fill:url(#e);fill-rule:nonzero"/><path d="M243.26 147.17a16.34 16.34 0 0 1-4.86 11.7 17.5 17.5 0 0 1-5.29 3.47c-2.02.87-4.13 1.3-6.33 1.3-2.31 0-4.45-.43-6.41-1.3a17.81 17.81 0 0 1-5.2-3.47 16.34 16.34 0 0 1-4.86-11.7 16.34 16.34 0 0 1 4.85-11.71c1.5-1.45 3.24-2.6 5.2-3.47 1.97-.87 4.11-1.3 6.42-1.3 2.2 0 4.31.43 6.33 1.3a17.5 17.5 0 0 1 5.3 3.47 16.34 16.34 0 0 1 4.86 11.7Z" style="fill:url(#f);fill-rule:nonzero"/><defs><linearGradient id="a" x1="0" x2="1" y1="0" y2="0" gradientTransform="matrix(97 299 -228 74 70.3 -46.64)" gradientUnits="userSpaceOnUse"><stop offset="0" style="stop-color:#ff6200;stop-opacity:1"/><stop offset="1" style="stop-color:#ff3700;stop-opacity:1"/></linearGradient><linearGradient id="b" x1="0" x2="1" y1="0" y2="0" gradientTransform="matrix(97 299 -228 74 70.3 -46.64)" gradientUnits="userSpaceOnUse"><stop offset="0" style="stop-color:#ff6200;stop-opacity:1"/><stop offset="1" style="stop-color:#ff3700;stop-opacity:1"/></linearGradient><linearGradient id="c" x1="0" x2="1" y1="0" y2="0" gradientTransform="matrix(97 299 -228 74 70.3 -46.64)" gradientUnits="userSpaceOnUse"><stop offset="0" style="stop-color:#ff6200;stop-opacity:1"/><stop offset="1" style="stop-color:#ff3700;stop-opacity:1"/></linearGradient><linearGradient id="d" x1="0" x2="1" y1="0" y2=".01" gradientTransform="matrix(148 444 -453 145 43.91 -28.3)" gradientUnits="userSpaceOnUse"><stop offset="0" style="stop-color:#035579;stop-opacity:1"/><stop offset="1" style="stop-color:#0d304f;stop-opacity:1"/></linearGradient><linearGradient id="e" x1="0" x2="1" y1="0" y2=".01" gradientTransform="matrix(148 444 -453 145 43.91 -28.3)" gradientUnits="userSpaceOnUse"><stop offset="0" style="stop-color:#035579;stop-opacity:1"/><stop offset="1" style="stop-color:#0d304f;stop-opacity:1"/></linearGradient><linearGradient id="f" x1="0" x2="1" y1="0" y2=".01" gradientTransform="matrix(148 444 -453 145 43.91 -28.3)" gradientUnits="userSpaceOnUse"><stop offset="0" style="stop-color:#035579;stop-opacity:1"/><stop offset="1" style="stop-color:#0d304f;stop-opacity:1"/></linearGradient></defs></svg>