<svg xmlns="http://www.w3.org/2000/svg" xml:space="preserve" style="fill-rule:evenodd;clip-rule:evenodd;stroke-linejoin:round;stroke-miterlimit:2" viewBox="0 0 848 428"><path d="m974 110 86 86v334H220V110h754Z" style="fill:url(#a)" transform="translate(-216 -106)"/><path d="m763.168 3.512 88.344 88.343v339.657h-848v-428h759.656Zm-5.656 8h-746v412h832v-326h-86v-86Zm80.343 78-72.343-72.344v72.344h72.343Z" style="fill:url(#b)" transform="translate(-3.512 -3.512)"/><path d="M.256-.754c0-.03.01-.055.029-.074a.102.102 0 0 1 .073-.028H.49v.12H.409c-.018 0-.027.01-.027.03v.269a.078.078 0 0 1-.021.056.077.077 0 0 1-.057.022H.298v.018h.006c.023 0 .042.007.057.022a.078.078 0 0 1 .021.056v.269c0 .02.009.03.027.03H.49v.12H.358A.098.098 0 0 1 .285.128.101.101 0 0 1 .256.054v-.303c0-.019-.009-.029-.027-.029H.166v-.144h.063c.018 0 .027-.01.027-.029v-.303Z" style="fill:#dfdfdf;fill-rule:nonzero" transform="matrix(129 0 0 129 60.341 256.347)"/><path d="M.256-.754c0-.03.01-.055.029-.074a.102.102 0 0 1 .073-.028H.49v.12H.409c-.018 0-.027.01-.027.03v.269a.078.078 0 0 1-.021.056.077.077 0 0 1-.057.022H.298v.018h.006c.023 0 .042.007.057.022a.078.078 0 0 1 .021.056v.269c0 .02.009.03.027.03H.49v.12H.358A.098.098 0 0 1 .285.128.101.101 0 0 1 .256.054v-.303c0-.019-.009-.029-.027-.029H.166v-.144h.063c.018 0 .027-.01.027-.029v-.303Z" style="fill:#dfdfdf;fill-rule:nonzero" transform="matrix(129 0 0 129 130.964 256.347)"/><path d="M.401-.081a.09.09 0 0 1-.028.067.102.102 0 0 1-.03.021.094.094 0 0 1-.037.007.09.09 0 0 1-.067-.028.08.08 0 0 1-.02-.03.09.09 0 0 1 0-.075.098.098 0 0 1 .02-.03.12.12 0 0 1 .03-.02.11.11 0 0 1 .037-.007c.013 0 .025.003.037.007a.12.12 0 0 1 .03.02.102.102 0 0 1 .021.03.099.099 0 0 1 .007.038Z" style="fill:#dfdfdf;fill-rule:nonzero" transform="matrix(129 0 0 129 201.587 256.347)"/><path d="M.414-.496H.54v.618a.078.078 0 0 1-.021.056A.075.075 0 0 1 .463.2H.168V.08h.219C.405.08.414.07.414.05v-.122H.396C.374-.015.327.014.254.014A.192.192 0 0 1 .185.002a.148.148 0 0 1-.056-.037.164.164 0 0 1-.037-.063.258.258 0 0 1-.014-.088v-.31h.126v.284c0 .035.008.063.025.082.017.02.042.03.075.03.038 0 .066-.012.084-.037a.169.169 0 0 0 .026-.099v-.26Z" style="fill:#dfdfdf;fill-rule:nonzero" transform="matrix(129 0 0 129 272.21 256.347)"/><path d="M.399-.072a.128.128 0 0 1-.056.066.163.163 0 0 1-.084.02.214.214 0 0 1-.084-.017.192.192 0 0 1-.07-.05.235.235 0 0 1-.047-.08A.296.296 0 0 1 .04-.24v-.016c0-.039.006-.075.017-.106a.25.25 0 0 1 .046-.08.2.2 0 0 1 .068-.051.204.204 0 0 1 .082-.017.18.18 0 0 1 .086.018.133.133 0 0 1 .051.056h.018v-.06h.126v.346c0 .02.009.03.027.03H.58V0H.494a.077.077 0 0 1-.055-.02.066.066 0 0 1-.022-.052H.399ZM.287-.106a.11.11 0 0 0 .088-.037.141.141 0 0 0 .033-.099v-.012a.145.145 0 0 0-.033-.1.113.113 0 0 0-.088-.036.113.113 0 0 0-.088.036.145.145 0 0 0-.033.1v.012c0 .042.011.075.033.099a.11.11 0 0 0 .088.037Z" style="fill:#dfdfdf;fill-rule:nonzero" transform="matrix(129 0 0 129 342.833 256.347)"/><path d="M.576 0H.45v-.348C.45-.362.447-.373.44-.38a.04.04 0 0 0-.028-.01c-.013 0-.024.004-.031.012-.008.008-.012.02-.012.036V0H.243v-.348c0-.014-.004-.025-.011-.032a.04.04 0 0 0-.028-.01.04.04 0 0 0-.03.012c-.008.008-.012.02-.012.036V0H.036v-.496h.126v.048H.18a.077.077 0 0 1 .028-.045.089.089 0 0 1 .056-.017c.022 0 .041.006.056.017a.088.088 0 0 1 .031.045h.018a.083.083 0 0 1 .034-.045.114.114 0 0 1 .063-.017c.033 0 .06.011.08.033.02.023.03.054.03.093V0Z" style="fill:#dfdfdf;fill-rule:nonzero" transform="matrix(129 0 0 129 413.455 256.347)"/><path d="M.178.2H.052v-.696h.126v.072h.018a.156.156 0 0 1 .058-.064.221.221 0 0 1 .181-.005.207.207 0 0 1 .116.129.32.32 0 0 1 .017.107v.018a.322.322 0 0 1-.017.108.235.235 0 0 1-.046.079.206.206 0 0 1-.154.066.208.208 0 0 1-.059-.007.155.155 0 0 1-.043-.019.105.105 0 0 1-.031-.028.166.166 0 0 1-.022-.032H.178V.2ZM.31-.106a.13.13 0 0 0 .096-.037.134.134 0 0 0 .036-.099v-.012a.138.138 0 0 0-.036-.1A.133.133 0 0 0 .31-.39a.126.126 0 0 0-.095.037.135.135 0 0 0-.037.099v.012c0 .041.012.073.037.098a.127.127 0 0 0 .095.038Z" style="fill:#dfdfdf;fill-rule:nonzero" transform="matrix(129 0 0 129 484.078 256.347)"/><path d="M.075-.12h.174v-.46H.081V-.7h.294v.58h.162V0H.075v-.12Z" style="fill:#dfdfdf;fill-rule:nonzero" transform="matrix(129 0 0 129 554.701 256.347)"/><path d="M.356-.451c0 .019.009.029.027.029h.063v.144H.383c-.018 0-.027.01-.027.029v.303c0 .03-.01.055-.028.074a.1.1 0 0 1-.074.028H.122v-.12h.081C.221.036.23.026.23.006v-.269c0-.023.007-.041.022-.056a.073.073 0 0 1 .056-.022h.006v-.018H.308a.073.073 0 0 1-.056-.022.075.075 0 0 1-.022-.056v-.269c0-.02-.009-.03-.027-.03H.122v-.12h.132c.03 0 .055.01.074.028a.104.104 0 0 1 .028.074v.303Z" style="fill:#dfdfdf;fill-rule:nonzero" transform="matrix(129 0 0 129 625.324 256.347)"/><path d="M.356-.451c0 .019.009.029.027.029h.063v.144H.383c-.018 0-.027.01-.027.029v.303c0 .03-.01.055-.028.074a.1.1 0 0 1-.074.028H.122v-.12h.081C.221.036.23.026.23.006v-.269c0-.023.007-.041.022-.056a.073.073 0 0 1 .056-.022h.006v-.018H.308a.073.073 0 0 1-.056-.022.075.075 0 0 1-.022-.056v-.269c0-.02-.009-.03-.027-.03H.122v-.12h.132c.03 0 .055.01.074.028a.104.104 0 0 1 .028.074v.303Z" style="fill:#dfdfdf;fill-rule:nonzero" transform="matrix(129 0 0 129 695.947 256.347)"/><defs><linearGradient id="a" x1="0" x2="1" y1="0" y2="0" gradientTransform="matrix(217 634 -634 217 491.782 12.374)" gradientUnits="userSpaceOnUse"><stop offset="0" style="stop-color:#035579;stop-opacity:1"/><stop offset="1" style="stop-color:#0d304f;stop-opacity:1"/></linearGradient><linearGradient id="b" x1="0" x2="1" y1="0" y2="0" gradientTransform="matrix(218 638 -322 110 280.142 -92.592)" gradientUnits="userSpaceOnUse"><stop offset="0" style="stop-color:#ff6200;stop-opacity:1"/><stop offset="1" style="stop-color:#ff3700;stop-opacity:1"/></linearGradient></defs></svg>